HIERARCHY
ROOT Hips
{
	OFFSET 0.00000 0.00000 0.00000
	CHANNELS 6 Xposition Yposition Zposition Zrotation Yrotation Xrotation 
	JOINT LHipJoint
	{
		OFFSET 0 0 0
		CHANNELS 3 Zrotation Yrotation Xrotation
		JOINT LeftHip
		{
			OFFSET 1.62067 -1.77917 0.70989
			CHANNELS 3 Zrotation Yrotation Xrotation
			JOINT LeftKnee
			{
				OFFSET 2.34532 -6.44371 0.00000
				CHANNELS 3 Zrotation Yrotation Xrotation
				JOINT LeftAnkle
				{
					OFFSET 2.74224 -7.53425 0.00000
					CHANNELS 3 Zrotation Yrotation Xrotation
					JOINT LeftToe
					{
						OFFSET 0.17032 -0.46794 2.08086
						CHANNELS 3 Zrotation Yrotation Xrotation
						End Site
						{
							OFFSET 0.00000 -0.00000 1.07476
						}
					}
				}
			}
		}
	}
	JOINT RHipJoint
	{
		OFFSET 0 0 0
		CHANNELS 3 Zrotation Yrotation Xrotation
		JOINT RightHip
		{
			OFFSET -1.55811 -1.77917 0.70989
			CHANNELS 3 Zrotation Yrotation Xrotation
			JOINT RightKnee
			{
				OFFSET -2.33243 -6.40830 0.00000
				CHANNELS 3 Zrotation Yrotation Xrotation
				JOINT RightAnkle
				{
					OFFSET -2.78798 -7.65993 0.00000
					CHANNELS 3 Zrotation Yrotation Xrotation
					JOINT RightToe
					{
						OFFSET -0.22707 -0.62388 2.04059
						CHANNELS 3 Zrotation Yrotation Xrotation
						End Site
						{
							OFFSET -0.00000 -0.00000 1.07030
						}
					}
				}
			}
		}
	}
	JOINT lowerback
	{
		OFFSET 0 0 0
		CHANNELS 3 Zrotation Yrotation Xrotation
		JOINT Chest
		{
			OFFSET 0.02203 1.91565 0.07161
			CHANNELS 3 Zrotation Yrotation Xrotation
			JOINT Chest2
			{
				OFFSET 0.01740 1.90525 0.11636
				CHANNELS 3 Zrotation Yrotation Xrotation
				JOINT lowerneck
				{
					OFFSET 0 0 0
					CHANNELS 3 Zrotation Yrotation Xrotation
					JOINT Neck
					{
						OFFSET -0.10841 1.83566 0.05067
						CHANNELS 3 Zrotation Yrotation Xrotation
						JOINT Head
						{
							OFFSET 0.06601 1.74760 -0.50505
							CHANNELS 3 Zrotation Yrotation Xrotation
							End Site
							{
								OFFSET 0.03102 1.85215 -0.17697
							}
						}
					}
				}
				JOINT LeftCollar
				{
					OFFSET 0 0 0
					CHANNELS 3 Zrotation Yrotation Xrotation
					JOINT LeftShoulder
					{
						OFFSET 2.87059 1.35470 0.16111
CHANNELS 3 Zrotation Xrotation Yrotation
						JOINT LeftElbow
						{
OFFSET 0 -5.435920 0.000000
CHANNELS 3 Zrotation Xrotation Yrotation
							JOINT LeftWrist
							{
OFFSET 0 -3.254600 0.000000
CHANNELS 3 Zrotation Xrotation Yrotation
								JOINT lhand
								{
									OFFSET 0 0 0
CHANNELS 3 Zrotation Xrotation Yrotation
									JOINT LFingers
									{
OFFSET 0 -0.498240 0.000000
CHANNELS 3 Zrotation Xrotation Yrotation
										End Site
										{
OFFSET 0 -0.401700 0.000000
										}
									}
								}
								JOINT LThumb
								{
OFFSET 0 0.000000 0.000000
CHANNELS 3 Zrotation Xrotation Yrotation
									End Site
									{
OFFSET 0 -0.407830 0.407830
									}
								}
							}
						}
					}
				}
				JOINT RightCollar
				{
					OFFSET 0 0 0
					CHANNELS 3 Zrotation Yrotation Xrotation
					JOINT RightShoulder
					{
						OFFSET -2.86643 1.23488 0.45957
CHANNELS 3 Zrotation Xrotation Yrotation
						JOINT RightElbow
						{
OFFSET 0 -5.338300 0.000000
CHANNELS 3 Zrotation Xrotation Yrotation
							JOINT RightWrist
							{
OFFSET 0 -3.231480 0.000000
CHANNELS 3 Zrotation Xrotation Yrotation
								JOINT rhand
								{
									OFFSET 0 0 0
CHANNELS 3 Zrotation Xrotation Yrotation
									JOINT RFingers
									{
OFFSET 0 -0.463640 0.000000
CHANNELS 3 Zrotation Xrotation Yrotation
										End Site
										{
OFFSET 0 -0.373800 0.000000
										}
									}
								}
								JOINT RThumb
								{
OFFSET 0 0.000000 0.000000
CHANNELS 3 Zrotation Xrotation Yrotation
									End Site
									{
OFFSET 0 -0.379510 0.379510
									}
								}
							}
						}
					}
				}
			}
		}
	}
}
MOTION
Frames: 11
Frame Time: 0.008333333333333333
3.798600 17.529700 3.901000 2.044900 -12.266500 20.348600 0.000000 0.000000 0.000000 -29.702100 -5.721400 -19.663700 0.411900 4.119900 11.414200 0.345800 4.249200 -13.495300 0.120400 2.236900 6.160800 0.000000 0.000000 0.000000 -6.250800 3.582000 -2.062900 -0.104900 -2.088000 5.749000 -5.350300 6.096800 -42.858900 -8.387100 -16.396700 53.945500 3.845800 2.762200 -12.135700 -0.363400 3.346000 -14.922800 -2.376500 1.227200 -9.023000 13.309400 18.307100 -2.695400 4.762200 23.263700 10.607400 0.857700 12.174500 4.576800 -0.000000 -0.000000 0.000000 132.432900 -6.691600 14.113400 18.338400 -28.588300 4.710100 27.758200 -56.602600 17.419800 0.000000 0.000000 0.000000 -7.125000 0.000000 0.000000 -0.126000 10.457200 -0.101000 -0.000000 -0.000000 0.000000 -111.306900 10.859700 -17.162800 -141.622100 -47.078900 -102.758200 -9.095100 -50.441800 46.947700 0.000000 0.000000 0.000000 7.125000 0.000000 -0.000000 49.775900 71.859400 -34.163700
3.811319 17.526818 3.912742 1.939253 -12.000115 20.504112 0.000000 0.000000 0.000000 -29.619216 -5.776985 -19.979654 0.445006 4.279940 11.865631 0.384301 3.846744 -13.763890 0.130378 2.327605 6.412026 0.000000 0.000000 0.000000 -6.159537 3.098522 -1.483202 -0.065909 -1.654533 4.551931 -5.421976 4.759100 -43.373465 -8.326021 -16.353932 53.728728 4.247510 2.761234 -12.435225 -0.369656 3.307586 -15.101323 -2.599171 1.163044 -9.055655 13.157539 18.277862 -1.584978 4.767727 23.442499 9.733965 0.770537 12.221186 4.505732 0.000000 0.000000 0.000000 132.356808 -6.957028 13.990729 18.221576 -28.439884 4.654292 27.019414 -55.759916 17.389129 0.000000 0.000000 0.000000 -7.125000 0.000000 0.000000 -0.606786 10.611872 -0.484629 0.000000 0.000000 0.000000 -111.507829 10.751767 -16.947042 -141.665705 -47.051473 -102.790101 -9.457936 -50.431894 46.670421 0.000000 0.000000 0.000000 7.125000 0.000000 0.000000 48.760520 71.821025 -33.336843
3.812798 17.527358 3.928538 1.656430 -12.137424 20.620406 0.000000 0.000000 0.000000 -29.348168 -5.738861 -20.199375 0.468302 4.389082 12.173958 0.399539 3.944766 -14.048755 0.128402 2.309649 6.362230 0.000000 0.000000 0.000000 -5.951322 3.105625 -0.975066 -0.039762 -1.285957 3.535896 -5.502390 4.320721 -43.789776 -8.318566 -16.348616 53.702050 4.468279 2.901215 -12.730368 -0.356812 3.461441 -15.056665 -2.683768 1.226526 -8.820825 13.368789 18.217475 -1.331895 4.524022 23.413027 9.866132 0.614941 12.209261 4.170106 0.000000 0.000000 0.000000 132.420297 -6.897913 13.499982 18.311259 -28.553926 4.697075 28.863190 -56.932104 17.644417 0.000000 0.000000 0.000000 -7.125000 0.000000 0.000000 0.570267 10.019379 0.463046 0.000000 0.000000 0.000000 -111.452271 10.907470 -16.900495 -141.697481 -47.031394 -102.813428 -9.155715 -50.456747 46.405607 0.000000 0.000000 0.000000 7.125000 0.000000 0.000000 48.383512 71.553500 -32.787677
3.812569 17.527759 3.926926 1.680161 -12.193970 20.667883 0.000000 0.000000 0.000000 -29.386540 -5.659191 -20.419694 0.480641 4.445831 12.334338 0.402774 3.863402 -14.035846 0.125416 2.282642 6.287498 0.000000 0.000000 0.000000 -6.008816 3.012416 -0.667176 -0.026442 -1.045577 2.874242 -5.555152 4.498533 -43.980587 -8.330345 -16.356910 53.744010 4.376869 2.976886 -12.753183 -0.466804 3.562178 -15.087740 -2.745118 1.278899 -8.833383 13.641393 18.107881 -0.959845 4.310107 23.348049 9.210930 0.480233 12.148694 4.385407 0.000000 0.000000 0.000000 132.522071 -7.088426 13.690702 18.327139 -28.574050 4.704685 28.349680 -57.007271 17.792027 0.000000 0.000000 0.000000 -7.125000 0.000000 0.000000 0.218995 9.945161 0.178327 0.000000 0.000000 0.000000 -111.345345 11.038291 -16.824371 -141.638758 -47.068488 -102.770391 -9.280735 -50.260922 46.656541 0.000000 0.000000 0.000000 7.125000 0.000000 0.000000 48.885220 71.750330 -33.364910
3.818339 17.524463 3.932747 1.745909 -12.036000 20.580441 0.000000 0.000000 0.000000 -29.511010 -5.479297 -20.334184 0.477752 4.432571 12.296895 0.417701 3.526849 -14.016613 0.131935 2.341363 6.449964 0.000000 0.000000 0.000000 -6.030874 2.857556 -0.600162 -0.028975 -1.097642 3.017442 -5.521724 4.270730 -43.880615 -8.332251 -16.358240 53.750770 4.348353 2.882252 -12.867036 -0.414134 3.430723 -14.879006 -2.668642 1.230970 -8.539889 13.475581 18.141361 -1.554283 4.393429 23.280361 9.733771 0.588427 12.135551 4.375113 0.000000 0.000000 0.000000 132.467011 -6.709450 13.669053 18.366962 -28.624526 4.723736 27.228822 -56.892377 17.911028 0.000000 0.000000 0.000000 -7.125000 0.000000 0.000000 -0.524402 10.005155 -0.425492 0.000000 0.000000 0.000000 -111.326599 10.848334 -17.185593 -141.510280 -47.149179 -102.676263 -8.457874 -50.572795 46.524448 0.000000 0.000000 0.000000 7.125000 0.000000 0.000000 49.300408 71.382281 -33.327171
3.816806 17.525622 3.933843 1.756123 -12.080850 20.577638 0.000000 0.000000 0.000000 -29.510466 -5.499295 -20.292444 0.471800 4.405506 12.220316 0.405568 3.626556 -13.914102 0.120468 2.237300 6.161928 0.000000 0.000000 0.000000 -6.021164 2.953713 -0.756697 -0.033297 -1.177757 3.238150 -5.502892 3.989437 -43.851736 -8.257938 -16.305687 53.486490 4.275115 2.917171 -12.901321 -0.461793 3.478847 -14.954972 -2.677024 1.256239 -8.605997 13.581771 18.041986 -1.431292 4.579992 23.133824 10.123377 0.615604 12.091776 4.275462 0.000000 0.000000 0.000000 132.565661 -6.740260 13.013150 18.434774 -28.710320 4.756225 27.581628 -57.459699 18.139502 0.000000 0.000000 0.000000 -7.125000 0.000000 0.000000 -0.319478 9.694614 -0.261086 0.000000 0.000000 0.000000 -111.195710 10.785910 -16.880750 -141.516886 -47.145088 -102.681164 -8.224406 -50.461304 46.628605 0.000000 0.000000 0.000000 7.125000 0.000000 0.000000 49.760157 71.363499 -33.663843
3.815959 17.522504 3.935046 1.803110 -12.037063 20.564745 0.000000 0.000000 0.000000 -29.574254 -5.440298 -20.215050 0.461897 4.359663 12.090838 0.401594 3.575652 -13.823414 0.100242 2.041416 5.620106 0.000000 0.000000 0.000000 -6.025941 2.978825 -0.969330 -0.044609 -1.362828 3.747756 -5.476911 4.665322 -43.622116 -8.303193 -16.337761 53.647561 4.092440 2.877891 -12.890680 -0.474765 3.436375 -14.762040 -2.586708 1.261538 -8.394908 13.435405 18.183819 -2.548946 4.905319 23.096238 10.629349 0.856785 12.103997 4.553475 0.000000 0.000000 0.000000 132.596520 -6.598663 13.430961 18.360954 -28.616890 4.720819 27.457183 -57.038066 18.120012 0.000000 0.000000 0.000000 -7.125000 0.000000 0.000000 -0.398107 9.737339 -0.325440 0.000000 0.000000 0.000000 -111.112132 10.887096 -17.457239 -141.388346 -47.225470 -102.586789 -7.459116 -51.133596 46.572855 0.000000 0.000000 0.000000 7.125000 0.000000 0.000000 50.304767 71.064428 -33.787712
3.816605 17.522029 3.938246 1.852653 -12.098435 20.510065 0.000000 0.000000 0.000000 -29.638824 -5.451848 -20.104858 0.455564 4.329980 12.006997 0.395473 3.670906 -13.801437 0.106797 2.107014 5.801528 0.000000 0.000000 0.000000 -6.060876 3.124856 -1.203602 -0.054823 -1.511125 4.156443 -5.440683 4.296389 -43.533407 -8.267456 -16.312450 53.520426 4.010773 2.811234 -12.900425 -0.368815 3.358178 -14.883796 -2.436096 1.229491 -8.547505 13.421512 18.106930 -1.670230 4.762324 23.163565 10.386417 0.721190 12.120495 4.357490 0.000000 0.000000 0.000000 132.344821 -6.745490 13.562106 18.258425 -28.486855 4.671893 28.499724 -56.587118 17.518022 0.000000 0.000000 0.000000 -7.125000 0.000000 0.000000 0.347989 10.223337 0.280804 0.000000 0.000000 0.000000 -111.239842 10.384421 -17.342303 -141.281665 -47.291960 -102.508479 -7.766183 -50.910768 46.598871 0.000000 0.000000 0.000000 7.125000 0.000000 0.000000 50.096098 71.186576 -33.747860
3.821065 17.526104 3.939565 1.861615 -12.162381 20.433125 0.000000 0.000000 0.000000 -29.654091 -5.490778 -20.027193 0.454490 4.324967 11.992794 0.391316 3.798180 -13.829931 0.107367 2.112999 5.817962 0.000000 0.000000 0.000000 -6.050207 3.265124 -1.336083 -0.057511 -1.547555 4.256884 -5.415445 2.841947 -43.710321 -8.129418 -16.213558 53.027314 3.821360 2.918741 -12.778517 -0.512354 3.510775 -14.560087 -2.470764 1.331166 -8.223677 13.582440 18.090761 -3.289494 4.722559 22.844783 10.891765 0.865180 11.986623 4.782405 0.000000 0.000000 0.000000 132.576667 -6.705738 14.402816 18.222131 -28.440693 4.654526 27.859802 -56.560027 17.682736 0.000000 0.000000 0.000000 -7.125000 0.000000 0.000000 -0.088053 10.150192 -0.071249 0.000000 0.000000 0.000000 -110.928655 10.963821 -17.883571 -141.275482 -47.295809 -102.503917 -8.832480 -50.176493 46.865127 0.000000 0.000000 0.000000 7.125000 0.000000 0.000000 49.801703 71.717684 -34.044811
3.825831 17.521983 3.944331 1.873083 -12.119138 20.406241 0.000000 0.000000 0.000000 -29.701464 -5.418797 -19.972758 0.454574 4.325374 11.993846 0.404759 3.657080 -13.923213 0.120685 2.239582 6.168314 0.000000 0.000000 0.000000 -6.092118 3.177463 -1.191224 -0.058622 -1.562082 4.296975 -5.422526 3.649024 -43.575508 -8.142818 -16.223262 53.075482 3.890580 2.906569 -12.774944 -0.521976 3.489708 -14.562753 -2.520995 1.313258 -8.226718 13.438567 18.058855 -3.137148 4.787661 22.836018 10.778748 0.871719 11.976617 4.698372 0.000000 0.000000 0.000000 132.409662 -7.001781 15.226608 18.081896 -28.261902 4.587944 27.460089 -55.826551 17.782985 0.000000 0.000000 0.000000 -7.125000 0.000000 0.000000 -0.359849 10.106975 -0.291118 0.000000 0.000000 0.000000 -110.937420 10.992025 -17.811953 -141.464037 -47.178202 -102.642318 -8.660245 -50.395036 46.829675 0.000000 0.000000 0.000000 7.125000 0.000000 0.000000 49.866162 71.636055 -34.014804
3.828965 17.527175 3.936900 1.724151 -11.962942 20.412633 0.000000 0.000000 0.000000 -29.496439 -5.477346 -19.996029 0.458216 4.342487 12.042186 0.403211 3.615272 -13.873167 0.119249 2.226021 6.130641 0.000000 0.000000 0.000000 -5.856986 3.082262 -1.138857 -0.054124 -1.501598 4.130176 -5.432588 2.614541 -43.824917 -8.094196 -16.188104 52.901389 3.996657 2.857391 -12.562264 -0.425261 3.434416 -14.522893 -2.489025 1.280454 -8.302951 13.067781 18.130655 -3.715384 5.176381 22.815596 11.082602 1.084435 11.986467 4.797785 0.000000 0.000000 0.000000 132.280591 -6.888705 15.420565 18.063000 -28.237764 4.578970 28.283820 -55.484938 17.468345 0.000000 0.000000 0.000000 -7.125000 0.000000 0.000000 0.212668 10.315139 0.171016 0.000000 0.000000 0.000000 -110.934732 11.148929 -17.786082 -141.653030 -47.059463 -102.780839 -8.158764 -50.571571 46.677486 0.000000 0.000000 0.000000 7.125000 0.000000 0.000000 49.937464 71.369877 -33.807453
